<svg height="24" viewBox="0 0 24 24" width="24" xmlns="http://www.w3.org/2000/svg"><path d="m18.5 9c.8357785 0 1.5073514-.67157288 1.5073514-1.5v-1c0-.82842712-.6715729-1.5-1.5-1.5h-13.0073514c-.82842712 0-1.5.67157288-1.5 1.5v1c0 .82842712.67157288 1.5 1.5 1.5h13.0000001zm-15.5 7.5c0-1.3807119 1.11928813-2.5 2.5-2.5h13.0073514c1.3807118 0 2.5 1.1192881 2.5 2.5v1c0 1.3807119-1.1192882 2.5-2.5 2.5h-13.0073514c-1.38071187 0-2.5-1.1192881-2.5-2.5zm.99975627-7c-.60708472-.4561144-.99975627-1.18220052-.99975627-2v-1c0-1.38071187 1.11928813-2.5 2.5-2.5h13.0073514c1.3807118 0 2.5 1.11928813 2.5 2.5v1c0 .81779948-.3926716 1.5438856-.9997563 2 .6070847.4561144.9997563 1.1822005.9997563 2v1c0 1.3807119-1.1192882 2.5-2.5 2.5-.2834938 0-.5073514-.2238576-.5073514-.5s.2238576-.5.5-.5c.8357785 0 1.5073514-.6715729 1.5073514-1.5v-1c0-.8284271-.6715729-1.5-1.5-1.5h-13.0073514c-.82842712 0-1.5.6715729-1.5 1.5v1c0 .8284271.67157288 1.5 1.5 1.5.27614237 0 .5.2238576.5.5s-.22385763.5-.5.5c-1.38071187 0-2.5-1.1192881-2.5-2.5v-1c0-.8177995.39267155-1.5438856.99975627-2zm.00024373 7v1c0 .8284271.67157288 1.5 1.5 1.5h13.0073514c.8284271 0 1.5-.6715729 1.5-1.5v-1c0-.8284271-.6715729-1.5-1.5-1.5h-13.0073514c-.82842712 0-1.5.6715729-1.5 1.5zm1.5-8.5c-.27614237 0-.5-.22385763-.5-.5s.22385763-.5.5-.5h2c.27614237 0 .5.22385763.5.5s-.22385763.5-.5.5zm0 5c-.27614237 0-.5-.2238576-.5-.5s.22385763-.5.5-.5h2c.27614237 0 .5.2238576.5.5s-.22385763.5-.5.5zm0 5c-.27614237 0-.5-.2238576-.5-.5s.22385763-.5.5-.5h2c.27614237 0 .5.2238576.5.5s-.22385763.5-.5.5z"/></svg>